<mxGraphModel dx="0" dy="0" grid="1" gridSize="10" guides="1" tooltips="1" connect="1" arrows="1" fold="1" page="0" pageScale="1" background="none" math="0" shadow="0">
  <root>
    <mxCell id="0" />
    <mxCell id="1" parent="0" />
    <mxCell id="node1" parent="1" vertex="1" value="&lt;p style=&quot;margin:0px;margin-top:4px;text-align:center;&quot;&gt;&lt;b&gt;ControladorPersistenciaDistribucio&lt;/b&gt;&lt;/p&gt;&lt;hr size=&quot;1&quot;/&gt;&lt;p style=&quot;margin:0 0 0 4px;line-height:1.6;&quot;&gt;+ cargarDistribucio(String): ControladorDistribucio&lt;br/&gt;+ guardarDistribucio(ControladorDistribucio, String): void&lt;/p&gt;" style="verticalAlign=top;align=left;overflow=fill;fontSize=14;fontFamily=Helvetica;html=1;rounded=0;shadow=0;comic=0;labelBackgroundColor=none;strokeWidth=1;">
      <mxGeometry x="72" y="-14" width="387" height="94" as="geometry" />
    </mxCell>
    <mxCell id="node2" parent="1" vertex="1" value="&lt;p style=&quot;margin:0px;margin-top:4px;text-align:center;&quot;&gt;&lt;b&gt;ControladorPersistenciaMain&lt;/b&gt;&lt;/p&gt;&lt;hr size=&quot;1&quot;/&gt;&lt;p style=&quot;margin:0 0 0 4px;line-height:1.6;&quot;&gt;+ guardarMain(Map&amp;lt;String, ControladorPerfil&amp;gt;, String): void&lt;br/&gt;+ cargarMain(String): Map&amp;lt;String, ControladorPerfil&amp;gt;&lt;/p&gt;" style="verticalAlign=top;align=left;overflow=fill;fontSize=14;fontFamily=Helvetica;html=1;rounded=0;shadow=0;comic=0;labelBackgroundColor=none;strokeWidth=1;">
      <mxGeometry x="-165" y="93" width="407" height="94" as="geometry" />
    </mxCell>
    <mxCell id="node3" parent="1" vertex="1" value="&lt;p style=&quot;margin:0px;margin-top:4px;text-align:center;&quot;&gt;&lt;b&gt;ControladorPersistenciaPerfil&lt;/b&gt;&lt;/p&gt;&lt;hr size=&quot;1&quot;/&gt;&lt;p style=&quot;margin:0 0 0 4px;line-height:1.6;&quot;&gt;+ guardarPerfiles(Map&amp;lt;String, ControladorPerfil&amp;gt;, String): void&lt;br/&gt;+ cargarPerfiles(String): Map&amp;lt;String, ControladorPerfil&amp;gt;&lt;/p&gt;" style="verticalAlign=top;align=left;overflow=fill;fontSize=14;fontFamily=Helvetica;html=1;rounded=0;shadow=0;comic=0;labelBackgroundColor=none;strokeWidth=1;">
      <mxGeometry x="272" y="93" width="424" height="94" as="geometry" />
    </mxCell>
    <mxCell id="node0" parent="1" vertex="1" value="&lt;p style=&quot;margin:0px;margin-top:4px;text-align:center;&quot;&gt;&lt;b&gt;ControladorPersistenciaPrestatgeria&lt;/b&gt;&lt;/p&gt;&lt;hr size=&quot;1&quot;/&gt;&lt;p style=&quot;margin:0 0 0 4px;line-height:1.6;&quot;&gt;+ cargarDatos(String): Map&amp;lt;String, ControladorPrestatgeria&amp;gt;&lt;br/&gt;+ cargarPrestatgeria_driver(String): List&amp;lt;Prestatgeria&amp;gt;&lt;br/&gt;+ guardarPrestatgeria_driver(List&amp;lt;Prestatgeria&amp;gt;, String): void&lt;br/&gt;+ guardarDatos(Map&amp;lt;String, ControladorPrestatgeria&amp;gt;, String): void&lt;/p&gt;" style="verticalAlign=top;align=left;overflow=fill;fontSize=14;fontFamily=Helvetica;html=1;rounded=0;shadow=0;comic=0;labelBackgroundColor=none;strokeWidth=1;">
      <mxGeometry x="37" y="200" width="457" height="146" as="geometry" />
    </mxCell>
  </root>
</mxGraphModel>